# xmcd
#
# Track frame offsets: 
#        150
#        21003
#        54425
#        82684
#        112284
#        137154
#        164570
#        189585
#
# Disc length: 2831 seconds
#
# Revision: 0
# Processed by: cddbd v1.5.1PL0 Copyright (c) Steve Scherf et al.
# Submitted via: ExactAudioCopy v0.95a5
#
DISCID=660b0d08
DTITLE=Papa Gumbo - Common Ground
DYEAR=2001
DGENRE=Blues
TTITLE0=R U Livin'
TTITLE1=SamSamba
TTITLE2=Blues Got The Best Of Me
TTITLE3=Blues Like Rain
TTITLE4=Big Legged Woman
TTITLE5=Common Ground
TTITLE6=Wild Chile
TTITLE7=Down The Line
EXTD=
EXTT0=
EXTT1=
EXTT2=
EXTT3=
EXTT4=
EXTT5=
EXTT6=
EXTT7=
PLAYORDER=
